<?xml version="1.0" encoding="UTF-8"?><svg id="Layer_4_copy_2" xmlns="http://www.w3.org/2000/svg" viewBox="0 0 150 150"><polygon points="109.72 54.84 96.9 79.04 84.49 54.84 74.4 54.84 74.4 112.73 83.68 112.73 83.75 72.64 96.88 97.14 110.13 72.42 110.21 138.5 119.23 138.5 119.23 54.84 109.72 54.84"/><path d="M119.73,139h-10.02v-.5s-.07-64.09-.07-64.09l-12.75,23.79-12.64-23.57-.07,38.6h-10.28v-58.89h10.9l12.11,23.62,12.51-23.62h10.31v84.66ZM110.71,138h8.02V55.34h-8.71l-13.12,24.79-12.71-24.79h-9.29v56.89h8.28l.07-41.57,13.63,25.42,13.75-25.64.07,67.57Z"/><polygon points="67.8 35.37 54.59 76.23 35.33 12.24 25 12.24 50.54 93.26 58.24 93.26 77.86 35.37 67.8 35.37"/><path d="M58.6,93.76h-8.43L24.32,11.74h11.38l.11.36,18.79,62.46,12.83-39.68h11.12l-19.95,58.89ZM50.9,92.76h6.98l19.28-56.89h-9l-13.59,42.04L34.96,12.74h-9.28l25.22,80.03Z"/><polygon points="108.39 110.52 78.3 127.89 32.76 101.6 32.76 49.01 34.32 47.91 32.11 41.05 25.64 44.97 25.64 105.84 78.35 136.27 108.39 118.93 108.39 110.52" fill="#000307"/><polygon points="78.35 14.54 43.93 34.2 46.06 41.08 78.3 22.71 123.84 49.01 123.84 101.6 120.97 103.25 120.97 111.66 131.06 105.84 131.06 44.97 78.35 14.54" fill="#000307"/></svg>