<?xml version="1.0" encoding="UTF-8"?><svg id="Layer_4_copy_2" xmlns="http://www.w3.org/2000/svg" viewBox="0 0 697.48 670.29"><polygon points="505.42 236.73 444.1 352.54 384.72 236.73 336.44 236.73 336.44 513.7 380.83 513.7 381.17 321.9 444.01 439.1 507.4 320.85 507.75 637 550.91 637 550.91 236.73 505.42 236.73" fill="#348ead"/><polygon points="304.86 143.59 241.64 339.06 149.52 32.9 100.09 32.9 222.26 420.56 259.14 420.56 352.99 143.59 304.86 143.59" fill="#348ead"/><polygon points="499.06 503.12 355.09 586.24 137.2 460.44 137.2 208.83 144.66 203.58 134.11 170.75 103.17 189.54 103.17 480.74 355.35 626.33 499.06 543.36 499.06 503.12" fill="#348ead"/><polygon points="355.35 43.95 190.68 137.99 200.87 170.9 355.09 83.03 572.99 208.83 572.99 460.44 559.26 468.36 559.26 508.61 607.54 480.74 607.54 189.54 355.35 43.95" fill="#348ead"/></svg>