<?xml version="1.0" encoding="UTF-8"?><svg id="Layer_4_copy_2" xmlns="http://www.w3.org/2000/svg" xmlns:xlink="http://www.w3.org/1999/xlink" viewBox="0 0 301.5 299"><defs><linearGradient id="linear-gradient" x1="162.63" y1="201" x2="275.89" y2="201" gradientUnits="userSpaceOnUse"><stop offset="0" stop-color="#ff2afa"/><stop offset=".12" stop-color="#f832f8"/><stop offset=".3" stop-color="#e549f3"/><stop offset=".53" stop-color="#c86eeb"/><stop offset=".69" stop-color="#b18be5"/></linearGradient><linearGradient id="linear-gradient-2" x1="30.38" y1="108.83" x2="141.31" y2="108.83" xlink:href="#linear-gradient"/><linearGradient id="linear-gradient-3" x1="46.27" y1="184.19" x2="219.92" y2="184.19" xlink:href="#linear-gradient"/><linearGradient id="linear-gradient-4" x1="102.2" y1="130.56" x2="285.05" y2="130.56" xlink:href="#linear-gradient"/></defs><polygon points="222.71 113.21 195.81 164.01 169.77 113.21 148.59 113.21 148.59 234.7 168.06 234.7 168.21 150.57 195.77 201.98 223.58 150.11 223.73 288.78 242.66 288.78 242.66 113.21 222.71 113.21" fill="url(#linear-gradient)"/><polygon points="134.74 72.36 107.01 158.1 66.6 23.81 44.92 23.81 98.51 193.85 114.69 193.85 155.85 72.36 134.74 72.36" fill="url(#linear-gradient-2)"/><polygon points="219.92 230.06 156.77 266.52 61.2 211.34 61.2 100.98 64.47 98.67 59.84 84.27 46.27 92.52 46.27 220.24 156.89 284.1 219.92 247.71 219.92 230.06" fill="url(#linear-gradient-3)"/><polygon points="156.89 28.65 84.65 69.9 89.12 84.34 156.77 45.8 252.35 100.98 252.35 211.34 246.33 214.81 246.33 232.47 267.5 220.24 267.5 92.52 156.89 28.65" fill="url(#linear-gradient-4)"/></svg>