<?xml version="1.0" encoding="UTF-8"?><svg id="Layer_4_copy_2" xmlns="http://www.w3.org/2000/svg" viewBox="0 0 301.5 299"><polygon points="221.46 113.77 195.31 163.16 169.99 113.77 149.4 113.77 149.4 231.88 168.33 231.88 168.47 150.09 195.27 200.07 222.3 149.65 222.45 284.46 240.85 284.46 240.85 113.77 221.46 113.77" fill="#348ead"/><polygon points="135.93 74.05 108.97 157.41 69.69 26.86 48.61 26.86 100.71 192.16 116.44 192.16 156.45 74.05 135.93 74.05" fill="#348ead"/><polygon points="218.74 227.37 157.35 262.82 64.43 209.17 64.43 101.88 67.62 99.64 63.12 85.64 49.92 93.65 49.92 217.83 157.46 279.91 218.74 244.53 218.74 227.37" fill="#348ead"/><polygon points="157.46 31.57 87.24 71.67 91.59 85.7 157.35 48.23 250.27 101.88 250.27 209.17 244.41 212.55 244.41 229.71 265 217.83 265 93.65 157.46 31.57" fill="#348ead"/></svg>