<?xml version="1.0" encoding="UTF-8"?><svg id="Layer_4_copy_2" xmlns="http://www.w3.org/2000/svg" xmlns:xlink="http://www.w3.org/1999/xlink" viewBox="0 0 697.48 670.29"><defs><linearGradient id="linear-gradient" x1="368.44" y1="436.86" x2="626.66" y2="436.86" gradientUnits="userSpaceOnUse"><stop offset="0" stop-color="#ff2afa"/><stop offset=".12" stop-color="#f832f8"/><stop offset=".3" stop-color="#e549f3"/><stop offset=".53" stop-color="#c86eeb"/><stop offset=".69" stop-color="#b18be5"/></linearGradient><linearGradient id="linear-gradient-2" x1="66.95" y1="226.73" x2="319.84" y2="226.73" xlink:href="#linear-gradient"/><linearGradient id="linear-gradient-3" x1="103.17" y1="398.54" x2="499.06" y2="398.54" xlink:href="#linear-gradient"/><linearGradient id="linear-gradient-4" x1="230.68" y1="276.28" x2="647.54" y2="276.28" xlink:href="#linear-gradient"/></defs><polygon points="505.42 236.73 444.1 352.54 384.72 236.73 336.44 236.73 336.44 513.7 380.83 513.7 381.17 321.9 444.01 439.1 507.4 320.85 507.75 637 550.91 637 550.91 236.73 505.42 236.73" fill="url(#linear-gradient)"/><polygon points="304.86 143.59 241.64 339.06 149.52 32.9 100.09 32.9 222.26 420.56 259.14 420.56 352.99 143.59 304.86 143.59" fill="url(#linear-gradient-2)"/><polygon points="499.06 503.12 355.09 586.24 137.2 460.44 137.2 208.83 144.66 203.58 134.11 170.75 103.17 189.54 103.17 480.74 355.35 626.33 499.06 543.36 499.06 503.12" fill="url(#linear-gradient-3)"/><polygon points="355.35 43.95 190.68 137.99 200.87 170.9 355.09 83.03 572.99 208.83 572.99 460.44 559.26 468.36 559.26 508.61 607.54 480.74 607.54 189.54 355.35 43.95" fill="url(#linear-gradient-4)"/></svg>